<svg width="1366" height="2397" viewBox="0 0 1366 2397" fill="none" xmlns="http://www.w3.org/2000/svg">
<circle cx="1300" cy="698" r="2" fill="#ABB2BF"/>
<circle cx="1324.75" cy="698" r="2" fill="#ABB2BF"/>
<circle cx="1349.5" cy="698" r="2" fill="#ABB2BF"/>
<circle cx="1300" cy="722.75" r="2" fill="#ABB2BF"/>
<circle cx="1324.75" cy="722.75" r="2" fill="#ABB2BF"/>
<circle cx="1349.5" cy="722.75" r="2" fill="#ABB2BF"/>
<circle cx="1300" cy="747.5" r="2" fill="#ABB2BF"/>
<circle cx="1324.75" cy="747.5" r="2" fill="#ABB2BF"/>
<circle cx="1349.5" cy="747.5" r="2" fill="#ABB2BF"/>
<circle cx="1300" cy="772.25" r="2" fill="#ABB2BF"/>
<circle cx="1324.75" cy="772.25" r="2" fill="#ABB2BF"/>
<circle cx="1349.5" cy="772.25" r="2" fill="#ABB2BF"/>
<circle cx="1300" cy="797" r="2" fill="#ABB2BF"/>
<circle cx="1324.75" cy="797" r="2" fill="#ABB2BF"/>
<circle cx="1349.5" cy="797" r="2" fill="#ABB2BF"/>
<circle cx="1.75" cy="1540" r="2" fill="#ABB2BF"/>
<circle cx="26.5" cy="1540" r="2" fill="#ABB2BF"/>
<circle cx="51.25" cy="1540" r="2" fill="#ABB2BF"/>
<circle cx="76" cy="1540" r="2" fill="#ABB2BF"/>
<circle cx="1.75" cy="1564.75" r="2" fill="#ABB2BF"/>
<circle cx="26.5" cy="1564.75" r="2" fill="#ABB2BF"/>
<circle cx="51.25" cy="1564.75" r="2" fill="#ABB2BF"/>
<circle cx="76" cy="1564.75" r="2" fill="#ABB2BF"/>
<circle cx="1.75" cy="1589.5" r="2" fill="#ABB2BF"/>
<circle cx="26.5" cy="1589.5" r="2" fill="#ABB2BF"/>
<circle cx="51.25" cy="1589.5" r="2" fill="#ABB2BF"/>
<circle cx="76" cy="1589.5" r="2" fill="#ABB2BF"/>
<circle cx="1.75" cy="1614.25" r="2" fill="#ABB2BF"/>
<circle cx="26.5" cy="1614.25" r="2" fill="#ABB2BF"/>
<circle cx="51.25" cy="1614.25" r="2" fill="#ABB2BF"/>
<circle cx="76" cy="1614.25" r="2" fill="#ABB2BF"/>
<circle cx="1.75" cy="1639" r="2" fill="#ABB2BF"/>
<circle cx="26.5" cy="1639" r="2" fill="#ABB2BF"/>
<circle cx="51.25" cy="1639" r="2" fill="#ABB2BF"/>
<circle cx="76" cy="1639" r="2" fill="#ABB2BF"/>
<circle cx="22" cy="123" r="2" fill="#ABB2BF"/>
<circle cx="56.5" cy="123" r="2" fill="#ABB2BF"/>
<circle cx="91" cy="123" r="2" fill="#ABB2BF"/>
<circle cx="22" cy="157.5" r="2" fill="#ABB2BF"/>
<circle cx="56.5" cy="157.5" r="2" fill="#ABB2BF"/>
<circle cx="91" cy="157.5" r="2" fill="#ABB2BF"/>
<circle cx="22" cy="192" r="2" fill="#ABB2BF"/>
<circle cx="56.5" cy="192" r="2" fill="#ABB2BF"/>
<circle cx="91" cy="192" r="2" fill="#ABB2BF"/>
<circle cx="22" cy="226.5" r="2" fill="#ABB2BF"/>
<circle cx="56.5" cy="226.5" r="2" fill="#ABB2BF"/>
<circle cx="91" cy="226.5" r="2" fill="#ABB2BF"/>
<circle cx="22" cy="261" r="2" fill="#ABB2BF"/>
<circle cx="56.5" cy="261" r="2" fill="#ABB2BF"/>
<circle cx="91" cy="261" r="2" fill="#ABB2BF"/>
<rect x="-68.5" y="873.5" width="154" height="154" stroke="#ABB2BF"/>
<rect x="1284.5" y="0.5" width="90" height="90" stroke="#ABB2BF"/>
<rect x="1277.5" y="1456.5" width="90" height="131" stroke="#ABB2BF"/>
<circle cx="1359.25" cy="2169" r="2" transform="rotate(-180 1359.25 2169)" fill="#ABB2BF"/>
<circle cx="1334.5" cy="2169" r="2" transform="rotate(-180 1334.5 2169)" fill="#ABB2BF"/>
<circle cx="1309.75" cy="2169" r="2" transform="rotate(-180 1309.75 2169)" fill="#ABB2BF"/>
<circle cx="1285" cy="2169" r="2" transform="rotate(-180 1285 2169)" fill="#ABB2BF"/>
<circle cx="1359.25" cy="2144.25" r="2" transform="rotate(-180 1359.25 2144.25)" fill="#ABB2BF"/>
<circle cx="1334.5" cy="2144.25" r="2" transform="rotate(-180 1334.5 2144.25)" fill="#ABB2BF"/>
<circle cx="1309.75" cy="2144.25" r="2" transform="rotate(-180 1309.75 2144.25)" fill="#ABB2BF"/>
<circle cx="1285" cy="2144.25" r="2" transform="rotate(-180 1285 2144.25)" fill="#ABB2BF"/>
<circle cx="1359.25" cy="2119.5" r="2" transform="rotate(-180 1359.25 2119.5)" fill="#ABB2BF"/>
<circle cx="1334.5" cy="2119.5" r="2" transform="rotate(-180 1334.5 2119.5)" fill="#ABB2BF"/>
<circle cx="1309.75" cy="2119.5" r="2" transform="rotate(-180 1309.75 2119.5)" fill="#ABB2BF"/>
<circle cx="1285" cy="2119.5" r="2" transform="rotate(-180 1285 2119.5)" fill="#ABB2BF"/>
<circle cx="1359.25" cy="2094.75" r="2" transform="rotate(-180 1359.25 2094.75)" fill="#ABB2BF"/>
<circle cx="1334.5" cy="2094.75" r="2" transform="rotate(-180 1334.5 2094.75)" fill="#ABB2BF"/>
<circle cx="1309.75" cy="2094.75" r="2" transform="rotate(-180 1309.75 2094.75)" fill="#ABB2BF"/>
<circle cx="1285" cy="2094.75" r="2" transform="rotate(-180 1285 2094.75)" fill="#ABB2BF"/>
<circle cx="1359.25" cy="2070" r="2" transform="rotate(-180 1359.25 2070)" fill="#ABB2BF"/>
<circle cx="1334.5" cy="2070" r="2" transform="rotate(-180 1334.5 2070)" fill="#ABB2BF"/>
<circle cx="1309.75" cy="2070" r="2" transform="rotate(-180 1309.75 2070)" fill="#ABB2BF"/>
<circle cx="1285" cy="2070" r="2" transform="rotate(-180 1285 2070)" fill="#ABB2BF"/>
<rect x="83.5001" y="2396.5" width="90" height="131" transform="rotate(-180 83.5001 2396.5)" stroke="#ABB2BF"/>
</svg>
